<svg id="Layer_1" data-name="Layer 1" xmlns="http://www.w3.org/2000/svg" viewBox="0 0 512 512"><defs><style>.cls-1{fill:#fff;}.cls-2{font-size:15.59px;stroke:#000;stroke-miterlimit:10;font-family:Montserrat-Thin, Montserrat;font-weight:200;letter-spacing:1em;}.cls-3{letter-spacing:0.97em;}</style></defs><rect class="cls-1" y="2" width="512" height="512"/><text class="cls-2" transform="translate(91.63 264.43) scale(2.26 1)">ELE<tspan class="cls-3" x="76.63" y="0">F</tspan><tspan x="101.48" y="0">AD</tspan></text><polygon points="46.63 238.3 82.65 238.3 82.65 225.57 30.88 225.57 30.88 250.15 46.63 250.06 46.63 238.3"/><polygon points="30.88 294.08 83.92 294.08 83.92 281.36 46.63 281.36 46.63 269.45 30.88 269.54 30.88 294.08"/><polygon points="108.78 294.08 158.99 294.08 158.99 281.16 124.64 281.16 124.64 269.04 108.78 269.12 108.78 294.08"/><polygon points="124.64 225.57 108.78 225.57 108.78 249.73 124.64 249.65 124.64 225.57"/><polygon points="180.13 294.08 233.17 294.08 233.17 281.36 195.88 281.36 195.88 268.66 180.13 268.74 180.13 294.08"/><polygon points="195.88 238.3 231.9 238.3 231.9 225.57 180.13 225.57 180.13 249.35 195.88 249.27 195.88 238.3"/><polygon points="258.03 294.08 273.88 294.08 273.88 269.13 305.6 269.13 305.6 268.07 258.03 268.33 258.03 294.08"/><polygon points="273.88 238.3 309.8 238.3 309.8 225.57 258.03 225.57 258.03 248.94 273.88 248.85 273.88 238.3"/><polygon points="320.96 294.08 337.21 294.08 343.27 279.4 375.08 279.4 381.15 294.08 397.79 294.08 385.97 267.64 332.62 267.93 320.96 294.08"/><polygon points="359.23 241.13 362.23 248.38 377.32 248.3 367.15 225.57 351.5 225.57 341.28 248.49 356.21 248.41 359.23 241.13"/><path d="M433,238.59h14.49q10.28,0,16.39,5.73a18.66,18.66,0,0,1,2.92,3.5l17.3-.09a30.76,30.76,0,0,0-2.8-5.91,32,32,0,0,0-13.31-12,43.71,43.71,0,0,0-19.72-4.26H417.17v22.52L433,248Z"/><path d="M463.9,275.34q-6.12,5.73-16.39,5.73H433V267.39l-15.85.09v26.6h31.12A43.71,43.71,0,0,0,468,289.82a31.86,31.86,0,0,0,13.31-12,31.51,31.51,0,0,0,4.09-10.73L469,267.2A18.42,18.42,0,0,1,463.9,275.34Z"/><path d="M421.43,258l19.86-.6,19.87-.45c6.62-.13,13.24-.52,19.86-.3s13.24.52,19.87,1.35v.3c-6.63.83-13.25,1.15-19.87,1.35s-13.24-.17-19.86-.3l-19.87-.45-19.86-.6Z"/><path d="M89,258.26l-19.87.6-19.86.45c-6.62.13-13.24.52-19.87.3s-13.24-.52-19.86-1.35V258c6.62-.83,13.24-1.15,19.86-1.35s13.25.17,19.87.3l19.86.45L89,258Z"/></svg>